HIERARCHY
ROOT Hips
{
    OFFSET 0.0 0.0 0.0
    CHANNELS 6 Xposition Yposition Zposition Zrotation Xrotation Yrotation
    JOINT Spine
    {
        OFFSET 0.0 5.0 0.0
        CHANNELS 3 Zrotation Xrotation Yrotation
        JOINT Chest
        {
            OFFSET 0.0 5.0 0.0
            CHANNELS 3 Zrotation Xrotation Yrotation
            JOINT Neck
            {
                OFFSET 0.0 8.0 0.0
                CHANNELS 3 Zrotation Xrotation Yrotation
                JOINT Head
                {
                    OFFSET 0.0 5.0 0.0
                    CHANNELS 3 Zrotation Xrotation Yrotation
                    End Site
                    {
                        OFFSET 0.0 3.0 0.0
                    }
                }
            }
            JOINT LeftShoulder
            {
                OFFSET -5.0 0.0 0.0
                CHANNELS 3 Zrotation Xrotation Yrotation
                JOINT LeftArm
                {
                    OFFSET 0.0 -10.0 0.0
                    CHANNELS 3 Zrotation Xrotation Yrotation
                    JOINT LeftForeArm
                    {
                        OFFSET 0.0 -10.0 0.0
                        CHANNELS 3 Zrotation Xrotation Yrotation
                        End Site
                        {
                            OFFSET 0.0 -3.0 0.0
                        }
                    }
                }
            }
        }
    }
}

MOTION
Frames: 18
Frame Time: 0.033333
970.000000 442.938926 151.468485 0.000000 0.000000 0.000000 0.000000 0.000000 0.000000 29.678605 2.826305 0.000000 180.000000 10.105453 0.000000 29.744881 -8.888499 -0.000000 150.255119 34.275092 30.000000 19.983107 -18.941827 0.000000 18.000000 0.108194 0.000000
1354.522934 467.411410 127.534683 0.000000 0.000000 0.000000 0.000000 0.000000 0.000000 150.622570 4.471141 4.973798 -29.377430 2.550709 4.973798 140.176400 -2.396258 3.759997 -12.221629 -2.786953 29.763441 132.794256 2.695164 -3.759997 -2.626015 0.344660 0.313953
969.997807 442.887864 111.553084 0.000000 0.000000 0.000000 0.000000 0.000000 0.000000 31.061399 16.595078 9.635073 180.000000 -4.100036 9.635073 30.285790 2.596198 7.460697 149.714210 -9.019021 29.057495 19.151579 -0.176447 -7.460697 18.000000 0.758909 0.626666
1246.736984 514.278152 127.413895 0.000000 0.000000 0.000000 0.000000 0.000000 0.000000 143.557092 -14.546006 13.690942 -36.442908 6.160530 13.690942 133.761037 2.316554 11.043737 -156.950665 -5.101697 27.893295 0.000000 0.000000 0.000000 1.928484 0.458151 0.936907
1245.221100 458.637464 125.384123 0.000000 0.000000 0.000000 0.000000 0.000000 0.000000 160.701064 -30.408627 16.886559 -19.298936 9.556373 16.886559 140.193827 6.285027 14.452610 -157.554825 -4.685401 26.289200 29.500467 5.517160 -14.452610 -15.049953 -0.551716 1.243449
1257.365570 418.514181 114.094517 0.000000 0.000000 0.000000 0.000000 0.000000 0.000000 -143.710676 13.317138 19.021130 36.289324 -8.856085 19.021130 163.220413 0.125208 17.633558 11.688054 -5.580603 24.270510 152.038385 0.278043 -17.633558 -2.339948 -0.021873 1.545085
1275.099564 408.163741 119.318185 0.000000 0.000000 0.000000 0.000000 0.000000 0.000000 -132.929531 -3.223663 19.960535 47.070469 -10.923981 19.960535 173.491912 7.042994 20.536413 -160.709681 -4.887195 21.869059 33.138793 5.774078 -20.536413 -14.686121 -0.577408 1.840623
1290.611115 384.880857 100.595467 0.000000 0.000000 0.000000 0.000000 0.000000 0.000000 -132.705235 0.083224 19.645745 47.294765 4.167061 19.645745 -173.778854 -6.459954 23.115397 20.496835 -3.101703 19.122720 -161.220290 -3.531609 -23.115397 1.723235 0.392122 2.128896
1302.817154 380.305352 88.959325 0.000000 0.000000 0.000000 0.000000 0.000000 0.000000 -131.493915 -8.018203 18.096541 48.506085 -0.786068 18.096541 -165.393697 1.464332 25.329838 23.154815 -0.020289 16.074804 -178.200316 1.642124 -25.329838 0.138141 -0.047900 2.408768
1304.997711 379.563582 85.142066 0.000000 0.000000 0.000000 0.000000 0.000000 0.000000 -126.727972 -4.500546 15.410265 53.272028 5.716431 15.410265 -160.219593 -1.999017 27.144812 28.448880 -0.386553 12.773379 -174.368770 0.566839 -27.144812 0.079526 0.043727 2.679134
1311.668472 386.890390 92.941775 0.000000 0.000000 0.000000 0.000000 0.000000 0.000000 -122.308728 1.565840 11.755705 57.691272 2.835062 11.755705 -158.801130 -1.630654 28.531695 150.942637 -1.017767 9.270510 -154.878332 -4.197079 -28.531695 2.695409 0.574343 2.938926
1305.131836 395.180186 80.456394 0.000000 0.000000 0.000000 0.000000 0.000000 0.000000 -125.112810 22.254116 7.362491 54.887190 2.073931 7.362491 -146.487292 -4.172381 29.468618 -175.167369 -2.308593 5.621439 -159.224034 -4.119181 -29.468618 1.782042 0.412505 3.187120
1296.320457 392.734526 70.215233 0.000000 0.000000 0.000000 0.000000 0.000000 0.000000 -131.035750 0.984031 2.506665 48.964250 0.667136 2.506665 -128.969563 -0.953446 29.940802 38.856147 1.799809 1.883716 -134.776850 3.133017 -29.940802 3.458429 -0.137527 3.422736
1306.963577 386.612041 78.365107 0.000000 0.000000 0.000000 0.000000 0.000000 0.000000 -124.469622 6.044641 -2.506665 55.530378 -0.532770 -2.506665 -109.994856 -2.154929 29.940802 37.691309 0.637671 -1.883716 -118.274788 -1.935952 -29.940802 5.098336 0.002751 3.644843
969.892723 442.572198 67.212655 0.000000 0.000000 0.000000 0.000000 0.000000 0.000000 41.287575 24.273693 -7.362491 180.000000 -16.230210 -7.362491 30.974696 8.273625 29.468618 149.025304 -1.072414 -5.621439 15.072869 -3.903946 -29.468618 18.000000 0.436269 3.852566
969.876883 442.545207 74.681633 0.000000 0.000000 0.000000 0.000000 0.000000 0.000000 42.241956 -35.441507 -11.755705 180.000000 18.982171 -11.755705 30.826133 -20.956427 28.531695 149.173867 12.581126 -9.270510 14.823070 -3.298387 -28.531695 18.000000 -0.312621 4.045085
969.859960 442.518116 59.412848 0.000000 0.000000 0.000000 0.000000 0.000000 0.000000 43.199779 42.131397 -15.410265 180.000000 -11.487113 -15.410265 30.649504 -4.939403 27.144812 149.350496 -27.782533 -12.773379 14.587557 13.612901 -27.144812 18.000000 -0.196073 4.221640
969.841956 442.490926 48.572995 0.000000 0.000000 0.000000 0.000000 0.000000 0.000000 44.157210 -15.364945 -18.096541 180.000000 -9.283760 -18.096541 30.446417 8.330214 25.329838 149.553583 7.709946 -16.074804 14.366154 -4.096894 -25.329838 18.000000 0.441503 4.381533
